# xmcd
#
# Track frame offsets:
# 150
# 19183
# 35189
# 64854
# 86862
# 104420
# 125360
# 142269
#
# Disc length: 2206 seconds
#
#
# Revision: 0
# Processed by: cddbd v1.5.2PL0 Copyright (c) Steve Scherf et al.
# Submitted via: FreeRIP 2.60 
#
DISCID=78089c08
DTITLE=Mudpuppy - Mudpuppy
DYEAR=1996
DGENRE=Blues
TTITLE0=Kansas City
TTITLE1=Too Poor
TTITLE2=Voodoo
TTITLE3=Lies
TTITLE4=Call the Plumber
TTITLE5=Make Up Your Mind
TTITLE6=Better Think Twice
TTITLE7=Spoonful
EXTD=
EXTT0=
EXTT1=
EXTT2=
EXTT3=
EXTT4=
EXTT5=
EXTT6=
EXTT7=
PLAYORDER=
